<svg width="192" height="104" viewBox="0 0 192 104" fill="none" xmlns="http://www.w3.org/2000/svg">
<g clip-path="url(#clip0_1:919)">
<path fill-rule="evenodd" clip-rule="evenodd" d="M15.7422 44.5121C7.04805 44.5121 0 39.4866 0 33.2873C0 27.088 7.04805 22.0625 15.7422 22.0625C20.7754 22.0625 25.2569 23.7468 28.1386 26.368C27.7388 26.5019 27.4619 26.7903 27.4619 27.1245C27.4619 27.5864 26.9337 27.9608 26.2822 27.9608H25.3915C24.7194 27.9608 24.1746 28.3471 24.1746 28.8236C24.1746 29.3 24.7194 29.6863 25.3915 29.6863H30.6569C30.9021 30.2027 31.0959 30.736 31.2342 31.2831C31.1101 31.3152 30.976 31.3327 30.8362 31.3327H30.7369C30.0759 31.3327 29.54 31.7126 29.54 32.1813V32.2343C29.54 32.6736 29.0376 33.0298 28.4179 33.0298C27.7982 33.0298 27.2958 32.6736 27.2958 32.2343V32.1813C27.2958 31.7126 26.76 31.3327 26.0989 31.3327C25.4379 31.3327 24.9021 31.7126 24.9021 32.1813V32.2343C24.9021 32.6736 24.3997 33.0298 23.78 33.0298C23.1603 33.0298 22.6579 33.386 22.6579 33.8253V33.8783C22.6579 34.347 23.1955 34.7269 23.8565 34.7269C24.5194 34.7269 25.0585 35.1079 25.0585 35.5779V35.693C25.0585 36.131 25.5594 36.486 26.1772 36.486C26.795 36.486 27.2958 36.8411 27.2958 37.2791V38.9696C27.2958 39.4383 27.8317 39.8182 28.4927 39.8182C28.5112 39.8182 28.5296 39.8179 28.548 39.8173C25.6918 42.6599 21.0204 44.5121 15.7422 44.5121ZM22.8211 25.605C22.8211 25.1364 22.2853 24.7565 21.6243 24.7565H19.6379C18.9171 24.7565 18.3328 25.1707 18.3328 25.6817V26.9816C18.3328 27.4209 18.8352 27.7771 19.4549 27.7771H19.6436C20.1591 27.7771 20.577 27.4808 20.577 27.1153C20.577 26.7498 20.9949 26.4536 21.5104 26.4536H21.6991C22.3188 26.4536 22.8211 26.0974 22.8211 25.658V25.605ZM6.42214 27.0491C6.42214 26.6288 6.90274 26.2881 7.49557 26.2881H14.9929C15.7136 26.2881 16.2979 26.7023 16.2979 27.2133L16.298 28.7456C16.298 29.1306 16.738 29.4426 17.281 29.4426C17.8239 29.4426 18.264 29.7546 18.264 30.1395V30.8148C18.264 31.2141 17.8075 31.5378 17.2443 31.5378C16.6812 31.5378 16.2246 31.8614 16.2246 32.2607V32.2838C16.2246 32.6958 15.7535 33.0298 15.1723 33.0298H15.1026C14.4828 33.0298 13.9805 33.386 13.9805 33.8253V33.8783C13.9805 34.347 13.4446 34.7269 12.7836 34.7269H12.634C11.973 34.7269 11.4371 34.347 11.4371 33.8783C11.4371 33.4097 10.9012 33.0298 10.2402 33.0298C9.57919 33.0298 9.04331 32.6499 9.04331 32.1813V31.3353C9.04331 31.3339 9.04493 31.3327 9.04695 31.3327C9.04894 31.3327 9.05059 31.3315 9.05059 31.3301V30.4847C9.05059 30.0163 8.51505 29.6367 7.85445 29.6367H5.99276C5.28131 29.6367 4.7046 29.2278 4.7046 28.7234V28.419C4.7046 28.0827 5.08909 27.8102 5.56335 27.8102C6.03765 27.8102 6.42214 27.5376 6.42214 27.2013V27.0491ZM15.1332 34.3551C14.4722 34.3551 13.9363 34.735 13.9363 35.2037V35.3097C13.9363 35.7198 14.4052 36.0522 14.9836 36.0522C15.562 36.0522 16.0309 36.3846 16.0309 36.7947V39.4279C16.0309 39.4381 16.0426 39.4464 16.0571 39.4464C16.0715 39.4464 16.0832 39.4547 16.0832 39.465V41.125C16.0832 41.1352 16.0715 41.1435 16.0571 41.1435C16.0426 41.1435 16.0309 41.1518 16.0309 41.1621V41.9921C16.0309 42.4607 16.5668 42.8406 17.2278 42.8406H17.2708C17.9081 42.8406 18.4247 42.4743 18.4247 42.0226V41.2117C18.4247 41.2077 18.4292 41.2045 18.4347 41.2045C18.4403 41.2045 18.4448 41.2013 18.4448 41.1974V40.2348C18.4448 39.7994 18.9427 39.4464 19.5568 39.4464C20.171 39.4464 20.6688 39.0935 20.6688 38.6581V38.5979C20.6688 38.1292 21.2047 37.7493 21.8657 37.7493C22.5267 37.7493 23.0626 37.3694 23.0626 36.9008C23.0626 36.4321 22.5267 36.0522 21.8657 36.0522C21.2047 36.0522 20.6688 35.6723 20.6688 35.2037C20.6688 34.735 20.1329 34.3551 19.4719 34.3551H15.1332Z" fill="black"/>
<path d="M49.4187 41.8931V22.9269H53.0918V41.8931H49.4187Z" fill="black"/>
<path d="M76.9918 35.1524C76.9918 36.5193 76.5639 37.7324 75.7078 38.7918C74.8761 39.8341 73.7349 40.6542 72.2848 41.2523C70.8583 41.8503 69.2537 42.1493 67.4706 42.1493C65.6878 42.1493 64.0712 41.8503 62.6211 41.2523C61.1709 40.6542 60.0178 39.8341 59.1621 38.7918C58.3303 37.7324 57.9141 36.5193 57.9141 35.1524C57.9141 33.7854 58.3303 32.5808 59.1621 31.5385C60.0178 30.4791 61.1709 29.6504 62.6211 29.0524C64.0712 28.4544 65.6878 28.1554 67.4706 28.1554C69.2537 28.1554 70.8583 28.4544 72.2848 29.0524C73.7349 29.6504 74.8761 30.4791 75.7078 31.5385C76.5639 32.5808 76.9918 33.7854 76.9918 35.1524ZM73.2474 35.1524C73.2714 34.2468 73.0217 33.4522 72.4986 32.7688C71.9994 32.0682 71.3102 31.53 70.4304 31.1541C69.5507 30.7611 68.5644 30.5646 67.4706 30.5646C66.3771 30.5646 65.3788 30.7611 64.4754 31.1541C63.5957 31.53 62.8944 32.0682 62.3713 32.7688C61.8722 33.4522 61.6344 34.2468 61.6584 35.1524C61.6344 36.0409 61.8722 36.8354 62.3713 37.5359C62.8944 38.2194 63.5957 38.7576 64.4754 39.1506C65.3788 39.5436 66.3771 39.7401 67.4706 39.7401C68.5644 39.7401 69.5507 39.5436 70.4304 39.1506C71.3102 38.7576 71.9994 38.2194 72.4986 37.5359C73.0217 36.8354 73.2714 36.0409 73.2474 35.1524Z" fill="black"/>
<path d="M84.417 35.1524C84.417 36.0409 84.6904 36.8354 85.2371 37.5359C85.8075 38.2194 86.5447 38.7662 87.4481 39.1762C88.3751 39.5692 89.3617 39.7657 90.4076 39.7657C91.5964 39.7657 92.6306 39.5436 93.51 39.0994C94.3897 38.6551 95.1026 38.1938 95.6497 37.7154L97.6822 39.5094C97.2304 39.9708 96.6124 40.4065 95.8279 40.8166C95.0434 41.2096 94.152 41.5342 93.1534 41.7905C92.1551 42.0297 91.1089 42.1493 90.0154 42.1493C88.3039 42.1493 86.7585 41.8418 85.3796 41.2267C84.0011 40.6115 82.9072 39.7743 82.0991 38.7149C81.3146 37.6555 80.9224 36.468 80.9224 35.1524C80.9224 33.8196 81.3146 32.6321 82.0991 31.5898C82.9072 30.5304 84.0011 29.6932 85.3796 29.078C86.7585 28.4629 88.3039 28.1554 90.0154 28.1554C91.7509 28.1554 93.2962 28.4117 94.6511 28.9243C96.006 29.4198 97.0166 30.0691 97.6822 30.8721L95.6497 32.6663C95.1026 32.0853 94.3181 31.5898 93.2962 31.1797C92.2976 30.7525 91.323 30.539 90.372 30.539C89.2549 30.539 88.2442 30.744 87.3409 31.1541C86.4375 31.5471 85.7246 32.0939 85.2015 32.7944C84.6784 33.4779 84.417 34.2638 84.417 35.1524Z" fill="black"/>
<path d="M119.654 28.4373V41.893H115.945V39.817C115.375 40.3809 114.531 40.9105 113.413 41.4061C112.296 41.9016 111 42.1493 109.527 42.1493C107.958 42.1493 106.519 41.8503 105.212 41.2523C103.928 40.6542 102.906 39.8255 102.145 38.7662C101.384 37.7068 101.004 36.4937 101.004 35.1267C101.004 33.7598 101.396 32.5552 102.181 31.5129C102.965 30.4535 104.047 29.6334 105.426 29.0524C106.804 28.4544 108.373 28.1554 110.133 28.1554C111.44 28.1554 112.581 28.3604 113.556 28.7705C114.555 29.1806 115.351 29.659 115.945 30.2058V28.4373H119.654ZM110.382 39.7145C111.523 39.7145 112.522 39.518 113.378 39.125C114.234 38.7149 114.899 38.1681 115.375 37.4847C115.85 36.7841 116.088 35.9981 116.088 35.1267C116.088 34.2724 115.85 33.5035 115.375 32.82C114.899 32.1365 114.234 31.5983 113.378 31.2053C112.522 30.7953 111.523 30.5902 110.382 30.5902C109.289 30.5902 108.314 30.7867 107.458 31.1797C106.602 31.5727 105.937 32.1109 105.461 32.7944C104.986 33.4779 104.748 34.2553 104.748 35.1267C104.748 35.9981 104.986 36.7841 105.461 37.4847C105.937 38.1681 106.602 38.7149 107.458 39.125C108.314 39.518 109.289 39.7145 110.382 39.7145Z" fill="black"/>
<path d="M125.852 41.8931V22.9269H129.525V41.8931H125.852Z" fill="black"/>
<path d="M138.452 47.7879L141.519 42.7388L141.626 42.5594L132.925 28.4373H137.204L143.052 38.3304C143.124 38.433 143.195 38.5611 143.266 38.7149C143.337 38.8687 143.421 39.0395 143.516 39.2275C143.611 39.0395 143.694 38.8601 143.766 38.6893C143.86 38.5013 143.956 38.3219 144.051 38.151L148.936 28.4373H153.286L145.584 41.893L142.41 47.7879H138.452Z" fill="black"/>
<path d="M170.191 39.612V41.893H156.319V39.6888L165.662 30.7184H156.319V28.4373H169.977V30.5902L160.598 39.612H170.191Z" fill="black"/>
<path d="M191.18 40.1247H191.144C190.384 40.6544 189.337 41.1242 188.006 41.5343C186.675 41.9444 185.284 42.1494 183.834 42.1494C181.885 42.1494 180.161 41.859 178.664 41.278C177.19 40.68 176.037 39.8684 175.205 38.8432C174.373 37.8009 173.957 36.6219 173.957 35.3062C173.957 33.8026 174.396 32.5211 175.276 31.4618C176.156 30.3853 177.321 29.5651 178.771 29.0013C180.221 28.4203 181.802 28.1299 183.513 28.1299C185.082 28.1299 186.509 28.4118 187.792 28.9756C189.076 29.5224 190.098 30.2828 190.859 31.2567C191.62 32.2306 192 33.3669 192 34.6655L191.964 35.7932H177.63C177.844 37.0064 178.533 37.9718 179.698 38.6894C180.886 39.39 182.384 39.7402 184.191 39.7402C185.498 39.7402 186.556 39.5694 187.365 39.2276C188.173 38.8688 188.838 38.5271 189.361 38.2024L191.18 40.1247ZM183.513 30.5647C182.111 30.5647 180.886 30.8039 179.841 31.2824C178.794 31.7437 178.105 32.5467 177.772 33.6916H188.256V33.5122C188.185 32.9312 187.911 32.4186 187.436 31.9743C186.984 31.5301 186.414 31.1884 185.724 30.9492C185.035 30.6929 184.298 30.5647 183.513 30.5647Z" fill="black"/>
</g>
<defs>
<clipPath id="clip0_1:919">
<rect width="192" height="138" fill="white" transform="translate(0 -34)"/>
</clipPath>
</defs>
</svg>
